<svg xmlns="http://www.w3.org/2000/svg" xmlns:xlink="http://www.w3.org/1999/xlink" viewBox="0 0 3816.98 641.57"><defs><style>.cls-1{fill:#209e91;}.cls-2{fill:url(#linear-gradient);}.cls-3{fill:url(#linear-gradient-2);}</style><linearGradient id="linear-gradient" x1="440.96" y1="591.72" x2="737.82" y2="591.72" gradientUnits="userSpaceOnUse"><stop offset="0" stop-color="#00adee"/><stop offset="1" stop-color="#d6de23"/></linearGradient><linearGradient id="linear-gradient-2" x1="0" y1="320.79" x2="638.72" y2="320.79" xlink:href="#linear-gradient"/></defs><title>Asset 5</title><g id="Layer_2" data-name="Layer 2"><g id="Layer_1-2" data-name="Layer 1"><polygon class="cls-1" points="987.32 373.39 1098.11 373.39 1098.84 315.31 987.32 315.31 987.32 271.61 1141.1 271.61 1092.71 210.67 922.26 210.67 922.26 481.62 1135.84 481.62 1135.84 424.79 987.32 424.79 987.32 373.39"/><polygon class="cls-1" points="1327.79 341.71 1415.83 210.67 1345.64 210.67 1290.5 293.72 1235.18 210.67 1164.88 210.67 1251.95 344.86 1161.78 481.62 1229.72 481.62 1290.9 392.44 1348.76 481.62 1419.37 481.62 1327.79 341.71"/><path class="cls-1" d="M1582.51,201.59l-141,280h72.25l16.35-34.42L1544,481.62h176.24Zm-1.2,138,37.86,84.85H1541Z"/><polygon class="cls-1" points="2000.99 199.83 1915.04 357.23 1825.23 200.08 1740.08 481.44 1803.52 481.44 1842.47 353.62 1914.23 468.97 1981.74 354.08 2020.88 481.44 2088.87 481.44 2000.99 199.83"/><path class="cls-1" d="M2276.18,372.21a81.11,81.11,0,0,0,51.8-27.89,90.63,90.63,0,0,0,17.19-32.22,65.55,65.55,0,0,0,0-39.23,96.06,96.06,0,0,0-16.91-32.65,79.42,79.42,0,0,0-27.67-21.7c-10.91-5.21-23.43-7.85-37.21-7.85H2106l51,59.33H2268a20.71,20.71,0,0,1,15.16,5.9c4,3.89,6,9.75,6,17.91-.42,7.44-2.4,12.86-5.89,16.14-3.71,3.47-9,5.7-15.7,6.61H2127.06V481.62h64.69V373h14.94L2285,481.8h69.14Z"/><path class="cls-1" d="M2595,244.33c-20.19-22.34-50.46-33.66-90-33.66s-70,11.33-90.08,33.67c-19.93,22.13-30,57-30,103.59,0,47,10.08,82,29.93,104.13,20.06,22.35,50.4,33.68,90.19,33.68s70-11.33,90.09-33.68c19.92-22.13,30-57.16,30-104.13C2625.12,301.32,2615,266.47,2595,244.33Zm-145.21,77.1A62.16,62.16,0,0,1,2459.84,301a65,65,0,0,1,18.28-16.31c7.16-4.42,16.21-6.67,26.88-6.67s19.72,2.25,26.88,6.66A65.41,65.41,0,0,1,2550.17,301a62.38,62.38,0,0,1,10,20.38c2.12,7.54,3.19,17.72,3.19,30.28s-1.07,22.73-3.19,30.27A75.46,75.46,0,0,1,2550,403.69a50,50,0,0,1-17.77,16c-7.24,3.95-16.4,6-27.21,6s-20-2-27.21-6a50,50,0,0,1-17.77-16A75.39,75.39,0,0,1,2449.78,382c-2.12-7.51-3.19-17.7-3.19-30.26S2447.66,329,2449.78,321.43Z"/><path class="cls-1" d="M2868.65,244.33c-20.18-22.34-50.45-33.66-90-33.66s-70,11.33-90.09,33.67c-19.92,22.13-30,57-30,103.59,0,47,10.07,82,29.93,104.13,20.05,22.35,50.4,33.68,90.19,33.68s70-11.33,90.08-33.68c19.93-22.13,30-57.16,30-104.13C2898.78,301.32,2888.65,266.47,2868.65,244.33Zm-145.2,77.1A62.13,62.13,0,0,1,2733.5,301a65,65,0,0,1,18.28-16.31c7.17-4.42,16.21-6.67,26.89-6.67s19.72,2.25,26.88,6.66A65.22,65.22,0,0,1,2823.83,301a62.4,62.4,0,0,1,10.06,20.38c2.11,7.54,3.19,17.72,3.19,30.28s-1.08,22.73-3.19,30.27a75.49,75.49,0,0,1-10.25,21.72,49.92,49.92,0,0,1-17.76,16c-7.25,3.95-16.4,6-27.21,6s-20-2-27.21-6a50,50,0,0,1-17.77-16A75.68,75.68,0,0,1,2723.44,382c-2.11-7.51-3.18-17.7-3.18-30.26S2721.33,329,2723.45,321.43Z"/><polygon class="cls-1" points="3188.83 199.83 3102.88 357.23 3013.07 200.08 2927.92 481.44 2991.36 481.44 3030.31 353.62 3102.07 468.97 3169.58 354.08 3208.73 481.44 3276.72 481.44 3188.83 199.83"/><path class="cls-1" d="M3393.1,411.53c-8.55-7.37-19.14-11.11-31.5-11.11-12.12,0-22.59,3.74-31.13,11.11-8.85,7.63-13.33,18.37-13.33,31.91,0,13.33,4.5,23.9,13.38,31.41,8.53,7.23,19,10.89,31.08,10.89,12.33,0,22.91-3.66,31.45-10.89,8.87-7.51,13.37-18.08,13.37-31.41C3406.42,429.9,3401.94,419.16,3393.1,411.53Z"/><path class="cls-1" d="M3587.82,201.59l-141,280h72.25l16.35-34.42,13.81,34.42h176.24Zm-1.21,138,37.86,84.85h-78.18Z"/><rect class="cls-1" x="3750.61" y="210.67" width="66.36" height="270.95"/><path class="cls-2" d="M740,640.14l-239.76.47L443.14,543c45.45-.09,81.18-.17,109.22-.2H683.57Z"/><path class="cls-3" d="M638.72,465.5h-241l-57.19-97.69H469.13l-100-172.43L284.82,342.07,270,367.81l-21.09,36.78-35,60.91L169,543.57c61-.11,114.4-.23,161.07-.29l57.13,97.57L0,641.57,192.06,307.45l1.58-2.82L368.74,0,582,367.81Z"/></g></g></svg>